GIL06_xslow1_ik
nRows=3
nColumns=375

# SIMM Motion File Header:
name GIL06_xslow1_ik
datacolumns 375
datarows 3
otherdata 1
range 1.18333000 1.20000000
endheader
time	pelvis_tx	pelvis_ty	pelvis_tz	pelvis_tilt	pelvis_list	pelvis_rotation	hip_flexion_r	hip_adduction_r	hip_rotation_r	knee_angle_r	ankle_angle_r	hip_flexion_l	hip_adduction_l	hip_rotation_l	knee_angle_l	ankle_angle_l	lumbar_extension	lumbar_bending	lumbar_rotation	subtalar_angle_r	mtp_angle_r	subtalar_angle_l	mtp_angle_l	asis_r_px	asis_r_py	asis_r_pz	asis_l_px	asis_l_py	asis_l_pz	midasis_px	midasis_py	midasis_pz	psis_r_px	psis_r_py	psis_r_pz	psis_l_px	psis_l_py	psis_l_pz	hip_r_px	hip_r_py	hip_r_pz	hip_l_px	hip_l_py	hip_l_pz	midhip_px	midhip_py	midhip_pz	epicondLat_r_px	epicondLat_r_py	epicondLat_r_pz	epicondMed_r_px	epicondMed_r_py	epicondMed_r_pz	thighwand_r_px	thighwand_r_py	thighwand_r_pz	upperleg1_r_px	upperleg1_r_py	upperleg1_r_pz	upperleg2_r_px	upperleg2_r_py	upperleg2_r_pz	malleolusLat_r_px	malleolusLat_r_py	malleolusLat_r_pz	malleolusMedv_r_px	malleolusMedv_r_py	malleolusMedv_r_pz	shankwand_r_px	shankwand_r_py	shankwand_r_pz	lowerleg1_r_px	lowerleg1_r_py	lowerleg1_r_pz	knee_r_px	knee_r_py	knee_r_pz	ankle_r_px	ankle_r_py	ankle_r_pz	toe_r_px	toe_r_py	toe_r_pz	epicondLat_l_px	epicondLat_l_py	epicondLat_l_pz	epicondMed_l_px	epicondMed_l_py	epicondMed_l_pz	thighwand_l_px	thighwand_l_py	thighwand_l_pz	upperleg1_l_px	upperleg1_l_py	upperleg1_l_pz	upperleg2_l_px	upperleg2_l_py	upperleg2_l_pz	malleolusLat_l_px	malleolusLat_l_py	malleolusLat_l_pz	malleolusMedv_l_px	malleolusMedv_l_py	malleolusMedv_l_pz	shankwand_l_px	shankwand_l_py	shankwand_l_pz	lowerleg1_l_px	lowerleg1_l_py	lowerleg1_l_pz	knee_l_px	knee_l_py	knee_l_pz	ankle_l_px	ankle_l_py	ankle_l_pz	toe_l_px	toe_l_py	toe_l_pz	subclavicle_r_px	subclavicle_r_py	subclavicle_r_pz	subclavicle_l_px	subclavicle_l_py	subclavicle_l_pz	neck_px	neck_py	neck_pz	sternalnotch_px	sternalnotch_py	sternalnotch_pz	xyphoidprocess_px	xyphoidprocess_py	xyphoidprocess_pz	midhip_tx	midhip_ty	midhip_tz	hip_r_tx	hip_r_ty	hip_r_tz	hip_l_tx	hip_l_ty	hip_l_tz	knee_r_tx	knee_r_ty	knee_r_tz	knee_l_tx	knee_l_ty	knee_l_tz	ankle_r_tx	ankle_r_ty	ankle_r_tz	ankle_l_tx	ankle_l_ty	ankle_l_tz	midasis_tx	midasis_ty	midasis_tz	asis_r_tx	asis_r_ty	asis_r_tz	asis_l_tx	asis_l_ty	asis_l_tz	psis_r_tx	psis_r_ty	psis_r_tz	psis_l_tx	psis_l_ty	psis_l_tz	epicondLat_r_tx	epicondLat_r_ty	epicondLat_r_tz	epicondLat_l_tx	epicondLat_l_ty	epicondLat_l_tz	epicondMed_r_tx	epicondMed_r_ty	epicondMed_r_tz	epicondMed_l_tx	epicondMed_l_ty	epicondMed_l_tz	malleolusLat_r_tx	malleolusLat_r_ty	malleolusLat_r_tz	malleolusLat_l_tx	malleolusLat_l_ty	malleolusLat_l_tz	malleolusMedv_r_tx	malleolusMedv_r_ty	malleolusMedv_r_tz	malleolusMedv_l_tx	malleolusMedv_l_ty	malleolusMedv_l_tz	neck_tx	neck_ty	neck_tz	subclavicle_r_tx	subclavicle_r_ty	subclavicle_r_tz	subclavicle_l_tx	subclavicle_l_ty	subclavicle_l_tz	sternalnotch_tx	sternalnotch_ty	sternalnotch_tz	xyphoidprocess_tx	xyphoidprocess_ty	xyphoidprocess_tz	thighwand_r_tx	thighwand_r_ty	thighwand_r_tz	thighwand_l_tx	thighwand_l_ty	thighwand_l_tz	upperleg1_r_tx	upperleg1_r_ty	upperleg1_r_tz	upperleg1_l_tx	upperleg1_l_ty	upperleg1_l_tz	upperleg2_r_tx	upperleg2_r_ty	upperleg2_r_tz	upperleg2_l_tx	upperleg2_l_ty	upperleg2_l_tz	shankwand_r_tx	shankwand_r_ty	shankwand_r_tz	shankwand_l_tx	shankwand_l_ty	shankwand_l_tz	lowerleg1_r_tx	lowerleg1_r_ty	lowerleg1_r_tz	lowerleg1_l_tx	lowerleg1_l_ty	lowerleg1_l_tz	toe_r_tx	toe_r_ty	toe_r_tz	toe_l_tx	toe_l_ty	toe_l_tz	ground_force_vx	ground_force_vy	ground_force_vz	ground_force_px	ground_force_py	ground_force_pz	ground_force_vx	ground_force_vy	ground_force_vz	ground_force_px	ground_force_py	ground_force_pz	ground_torque_x	ground_torque_y	ground_torque_z	ground_torque_x	ground_torque_y	ground_torque_z	ground_marker_px	ground_marker_py	ground_marker_pz	ground_marker_px	ground_marker_py	ground_marker_pz	ground_marker_px	ground_marker_py	ground_marker_pz	ground_marker_px	ground_marker_py	ground_marker_pz	ground_marker_px	ground_marker_py	ground_marker_pz	ground_marker_px	ground_marker_py	ground_marker_pz	ground_marker_px	ground_marker_py	ground_marker_pz	ground_marker_px	ground_marker_py	ground_marker_pz	ground_marker_px	ground_marker_py	ground_marker_pz	ground_marker_px	ground_marker_py	ground_marker_pz	ground_marker_px	ground_marker_py	ground_marker_pz	ground_marker_px	ground_marker_py	ground_marker_pz	ground_marker_px	ground_marker_py	ground_marker_pz	ground_marker_px	ground_marker_py	ground_marker_pz	ground_marker_px	ground_marker_py	ground_marker_pz	ground_marker_px	ground_marker_py	ground_marker_pz	ground_marker_px	ground_marker_py	ground_marker_pz	ground_marker_px	ground_marker_py	ground_marker_pz	ground_marker_px	ground_marker_py	ground_marker_pz	ground_marker_px	ground_marker_py	ground_marker_pz	ground_marker_px	ground_marker_py	ground_marker_pz	ground_marker_px	ground_marker_py	ground_marker_pz	ground_marker_px	ground_marker_py	ground_marker_pz	ground_marker_px	ground_marker_py	ground_marker_pz	ground_marker_px	ground_marker_py	ground_marker_pz	ground_marker_px	ground_marker_py	ground_marker_pz	ground_marker_px	ground_marker_py	ground_marker_pz	ground_marker_px	ground_marker_py	ground_marker_pz	ground_marker_px	ground_marker_py	ground_marker_pz	ground_marker_px	ground_marker_py	ground_marker_pz	ground_marker_px	ground_marker_py	ground_marker_pz	ground_marker_px	ground_marker_py	ground_marker_pz	ground_marker_px	ground_marker_py	ground_marker_pz	ground_marker_px	ground_marker_py	ground_marker_pz	ground_marker_px	ground_marker_py	ground_marker_pz	ground_marker_px	ground_marker_py	ground_marker_pz	ground_marker_px	ground_marker_py	ground_marker_pz
      1.18333000	      0.63863847	      0.83152991	     -0.25105513	     -5.96407541	     -1.65482160	      1.92530283	     20.85559886	      3.89560829	      5.49272400	     -4.28927550	    -11.11132260	     -9.53821644	     -0.34825775	     -1.04810991	    -14.65555002	      3.09300376	      9.06350902	      1.50881559	      7.74415764	      0.00000000	      0.00000000	      0.00000000	      0.00000000	      0.69858347	      0.81712542	     -0.13573806	      0.68819869	      0.81021127	     -0.38134204	      0.65200582	      0.83012030	     -0.25150678	      0.46556686	      0.92617128	     -0.21823777	      0.45886619	      0.92340286	     -0.27300395	      0.56745919	      0.77754234	     -0.16680532	      0.56161743	      0.77349720	     -0.32707580	      0.56453831	      0.77551977	     -0.24694056	      0.67433941	      0.40592784	     -0.12841093	      0.63240496	      0.41214186	     -0.26719956	      0.78580364	      0.59625173	     -0.14373276	      0.74019918	      0.60820708	     -0.15643806	      0.73162280	      0.53119337	     -0.16386444	      0.72199111	      0.05008157	     -0.15369763	      0.72582446	      0.06141328	     -0.22949985	      0.78124482	      0.21305962	     -0.17897016	      0.73401759	      0.21030275	     -0.18539765	      0.65696104	      0.42238818	     -0.18568855	      0.72381745	      0.06049087	     -0.20133770	      0.83418096	      0.03585114	     -0.20198141	      0.45208072	      0.41135816	     -0.38336047	      0.45891378	      0.39933175	     -0.23539091	      0.67697158	      0.53458239	     -0.34789494	      0.63529366	      0.56239663	     -0.35094609	      0.59938991	      0.49811430	     -0.34485020	      0.24857781	      0.10207161	     -0.34258945	      0.27819154	      0.10750108	     -0.26851796	      0.28665263	      0.20597815	     -0.41067032	      0.30018501	      0.21371361	     -0.36433042	      0.46144262	      0.42000490	     -0.31670240	      0.27649948	      0.10176669	     -0.30239101	      0.35085537	      0.03735120	     -0.32819329	      0.59476697	      1.27677744	     -0.20700317	      0.58897682	      1.28088774	     -0.28862540	      0.45094780	      1.31546616	     -0.23378867	      0.57583095	      1.27041365	     -0.25932040	      0.64252569	      1.21021190	     -0.26588142	      0.56079100	      0.76809300	     -0.24736100	      0.54531800	      0.77327200	     -0.16747500	      0.53868300	      0.77068700	     -0.32294100	      0.64569700	      0.41183100	     -0.19301700	      0.44885300	      0.42479300	     -0.31395300	      0.71943200	      0.05992200	     -0.19420200	      0.26764100	      0.09971900	     -0.30836100	      0.67115400	      0.84132100	     -0.25187300	      0.67651300	      0.84340900	     -0.12629800	      0.66579400	      0.83923200	     -0.37744900	      0.42912200	      0.91840700	     -0.21083300	      0.42409200	      0.91812600	     -0.26421400	      0.65668900	      0.40989300	     -0.12239400	      0.44452800	      0.42406200	     -0.38531800	      0.61240600	      0.40399500	     -0.25841200	      0.44709400	      0.42165900	     -0.22223600	      0.71442800	      0.05874500	     -0.15604700	      0.25406600	      0.10666000	     -0.34480000	      0.72232300	      0.07074700	     -0.23116900	      0.27100600	      0.11736100	     -0.26752300	      0.46241300	      1.33872000	     -0.23578200	      0.59051200	      1.26561200	     -0.20656100	      0.58457000	      1.26677000	     -0.28801700	      0.56948900	      1.26173000	     -0.25817200	      0.61808400	      1.18580100	     -0.26165800	      0.76585500	      0.58082600	     -0.12731400	      0.67101200	      0.55163000	     -0.33287500	      0.72052800	      0.59474600	     -0.13947700	      0.62782400	      0.57908000	     -0.33795900	      0.71170400	      0.51865600	     -0.14991900	      0.59165500	      0.51611600	     -0.33089400	      0.77600900	      0.22122400	     -0.17470700	      0.30435900	      0.20258100	     -0.41440000	      0.73001300	      0.21772800	     -0.18335600	      0.30998500	      0.21343000	     -0.36726800	      0.83189500	      0.04986100	     -0.18855600	      0.35206800	      0.04957600	     -0.31413400	    -54.54085812	    411.34346687	    -10.86146361	      0.71538831	      0.00000000	     -0.19441965	     68.20546740	    397.48993199	      6.26273558	      0.36859473	      0.00000000	     -0.29608844	      0.00000000	     -0.49371631	      0.00000000	      0.00000000	     -0.74444568	      0.00000000	      0.56079066	      0.76809275	     -0.24736077	      0.54531813	      0.77327245	     -0.16747488	      0.53868294	      0.77068686	     -0.32294101	      0.64569712	      0.41183138	     -0.19301723	      0.44885314	      0.42479309	     -0.31395268	      0.71943235	      0.05992201	     -0.19420239	      0.26764140	      0.09971919	     -0.30836135	      0.67115384	      0.84132069	     -0.25187331	      0.67651331	      0.84340912	     -0.12629794	      0.66579437	      0.83923227	     -0.37744871	      0.42912215	      0.91840714	     -0.21083261	      0.42409241	      0.91812629	     -0.26421362	      0.65668881	      0.40989313	     -0.12239373	      0.44452846	      0.42406175	     -0.38531804	      0.61240554	      0.40399477	     -0.25841248	      0.44709396	      0.42165908	     -0.22223555	      0.71442825	      0.05874500	     -0.15604714	      0.25406572	      0.10666016	     -0.34480000	      0.72232276	      0.07074720	     -0.23116937	      0.27100554	      0.11736143	     -0.26752260	      0.46241310	      1.33872020	     -0.23578236	      0.59051168	      1.26561153	     -0.20656052	      0.58456993	      1.26677048	     -0.28801674	      0.56948882	      1.26172984	     -0.25817186	      0.61808407	      1.18580127	     -0.26165757	      0.76585543	      0.58082563	     -0.12731417	      0.67101204	      0.55162972	     -0.33287495	      0.72052848	      0.59474587	     -0.13947667	      0.62782425	      0.57907963	     -0.33795908	      0.71170354	      0.51865619	     -0.14991900	      0.59165454	      0.51611644	     -0.33089402	      0.77600855	      0.22122400	     -0.17470743	      0.30435902	      0.20258145	     -0.41439959	      0.73001337	      0.21772794	     -0.18335605	      0.30998519	      0.21342961	     -0.36726797	      0.83189487	      0.04986095	     -0.18855591	      0.35206819	      0.04957625	     -0.31413415
      1.19167000	      0.64410539	      0.83228761	     -0.24980269	     -5.89518318	     -1.79835552	      1.90473747	     20.27708490	      4.14386907	      5.16727834	     -4.10714338	    -10.82900972	     -9.40238037	     -0.64484406	     -1.10449926	    -15.64424032	      2.40447041	      9.00517084	      1.68997873	      7.69647194	      0.00000000	      0.00000000	      0.00000000	      0.00000000	      0.70405633	      0.81824752	     -0.13444378	      0.69370442	      0.81069972	     -0.38003049	      0.65747448	      0.83089308	     -0.25024949	      0.47091583	      0.92680159	     -0.21724148	      0.46422398	      0.92388657	     -0.27200112	      0.57298326	      0.77842693	     -0.16542349	      0.56716238	      0.77396943	     -0.32568380	      0.57007282	      0.77619818	     -0.24555365	      0.67619848	      0.40572588	     -0.12753687	      0.63498789	      0.41270537	     -0.26650582	      0.78950984	      0.59503799	     -0.14180845	      0.74408044	      0.60745403	     -0.15469773	      0.73481975	      0.53054427	     -0.16237520	      0.72178717	      0.04970613	     -0.15372861	      0.72605714	      0.06125259	     -0.22947506	      0.78217268	      0.21239121	     -0.17819697	      0.73496087	      0.20994849	     -0.18486049	      0.65922436	      0.42250908	     -0.18484765	      0.72390834	      0.06025394	     -0.20132597	      0.83423923	      0.03546032	     -0.20141112	      0.45888760	      0.41161840	     -0.38303570	      0.46569343	      0.39920008	     -0.23509727	      0.68334043	      0.53550874	     -0.34711880	      0.64156929	      0.56318916	     -0.35011151	      0.60588222	      0.49876791	     -0.34421288	      0.25113701	      0.10505828	     -0.34299547	      0.28077067	      0.10993711	     -0.26889364	      0.29069215	      0.20855794	     -0.41085177	      0.30429743	      0.21601752	     -0.36448799	      0.46835678	      0.41996950	     -0.31635628	      0.27902342	      0.10429107	     -0.30277872	      0.35176777	      0.03798222	     -0.32837773	      0.60006667	      1.27740639	     -0.20572061	      0.59434054	      1.28156797	     -0.28734476	      0.45626578	      1.31610147	     -0.23259493	      0.58117235	      1.27107435	     -0.25805677	      0.64787672	      1.21088168	     -0.26460336	      0.56644100	      0.76879300	     -0.24604700	      0.55099000	      0.77412700	     -0.16617200	      0.54433000	      0.77117700	     -0.32163000	      0.64792900	      0.41235000	     -0.19231200	      0.45563500	      0.42468000	     -0.31378500	      0.71950400	      0.05985700	     -0.19417500	      0.26995700	      0.10203600	     -0.30845700	      0.67672400	      0.84214100	     -0.25074900	      0.68210400	      0.84452400	     -0.12517600	      0.67134500	      0.83975700	     -0.37632100	      0.43468800	      0.91900700	     -0.20974200	      0.42964300	      0.91856500	     -0.26324400	      0.65859600	      0.41010200	     -0.12164800	      0.45132400	      0.42416800	     -0.38515300	      0.61458000	      0.40588500	     -0.25882700	      0.45743800	      0.41752100	     -0.22358200	      0.71456800	      0.05865300	     -0.15601100	      0.25642900	      0.10921900	     -0.34486700	      0.72167500	      0.07089000	     -0.23116900	      0.27360700	      0.11951000	     -0.26757900	      0.46851700	      1.33867400	     -0.23479200	      0.59588500	      1.26632000	     -0.20484200	      0.58905200	      1.26746600	     -0.28676900	      0.57462000	      1.26247600	     -0.25666900	      0.62290300	      1.18651600	     -0.26047500	      0.76947900	      0.57971100	     -0.12561300	      0.67746100	      0.55250000	     -0.33226300	      0.72473200	      0.59450500	     -0.13834800	      0.63440400	      0.58015600	     -0.33725200	      0.71456700	      0.51858400	     -0.14893100	      0.60004900	      0.51682100	     -0.33096700	      0.77681000	      0.22095500	     -0.17460600	      0.30794200	      0.20456200	     -0.41438600	      0.73047800	      0.21760500	     -0.18285100	      0.31378900	      0.21521400	     -0.36717000	      0.83208300	      0.04962600	     -0.18868300	      0.35315400	      0.04976700	     -0.31413100	    -53.93799541	    423.41713631	    -11.62763361	      0.71654114	      0.00000000	     -0.19399130	     67.27889005	    376.45835904	      5.00659273	      0.36911713	      0.00000000	     -0.29562415	      0.00000000	     -0.67640625	      0.00000000	      0.00000000	     -0.76385492	      0.00000000	      0.56644088	      0.76879317	     -0.24604720	      0.55098969	      0.77412730	     -0.16617154	      0.54432994	      0.77117687	     -0.32163009	      0.64792866	      0.41234985	     -0.19231239	      0.45563471	      0.42468020	     -0.31378490	      0.71950364	      0.05985663	     -0.19417468	      0.26995727	      0.10203557	     -0.30845731	      0.67672431	      0.84214067	     -0.25074863	      0.68210369	      0.84452385	     -0.12517588	      0.67134488	      0.83975744	     -0.37632141	      0.43468830	      0.91900742	     -0.20974152	      0.42964289	      0.91856492	     -0.26324445	      0.65859580	      0.41010216	     -0.12164834	      0.45132369	      0.42416784	     -0.38515300	      0.61458045	      0.40588471	     -0.25882712	      0.45743823	      0.41752118	     -0.22358236	      0.71456820	      0.05865284	     -0.15601133	      0.25642934	      0.10921950	     -0.34486660	      0.72167510	      0.07089001	     -0.23116924	      0.27360737	      0.11951020	     -0.26757863	      0.46851665	      1.33867359	     -0.23479210	      0.59588540	      1.26631963	     -0.20484155	      0.58905232	      1.26746643	     -0.28676936	      0.57461965	      1.26247561	     -0.25666890	      0.62290269	      1.18651605	     -0.26047504	      0.76947916	      0.57971126	     -0.12561268	      0.67746067	      0.55249995	     -0.33226302	      0.72473150	      0.59450543	     -0.13834803	      0.63440430	      0.58015621	     -0.33725172	      0.71456677	      0.51858377	     -0.14893053	      0.60004926	      0.51682067	     -0.33096662	      0.77681029	      0.22095482	     -0.17460574	      0.30794203	      0.20456210	     -0.41438594	      0.73047769	      0.21760452	     -0.18285142	      0.31378922	      0.21521364	     -0.36716971	      0.83208251	      0.04962559	     -0.18868285	      0.35315406	      0.04976704	     -0.31413144
      1.20000000	      0.64955523	      0.83310037	     -0.24850893	     -5.82031026	     -1.92447981	      1.89150336	     19.67469728	      4.37025429	      4.89223975	     -3.88528456	    -10.56448630	     -9.22995676	     -0.93704737	     -1.14957434	    -16.69398921	      1.66060221	      9.01201835	      1.89523932	      7.72727024	      0.00000000	      0.00000000	      0.00000000	      0.00000000	      0.70952383	      0.81939444	     -0.13311901	      0.69918343	      0.81128950	     -0.37868845	      0.66292615	      0.83172242	     -0.24895259	      0.47624139	      0.92745849	     -0.21615760	      0.46955374	      0.92441348	     -0.27091068	      0.57850341	      0.77933315	     -0.16401098	      0.57268942	      0.77451331	     -0.32426104	      0.57559642	      0.77692323	     -0.24413601	      0.67797792	      0.40556736	     -0.12661033	      0.63739437	      0.41327237	     -0.26572540	      0.79316040	      0.59381356	     -0.13997378	      0.74790456	      0.60669671	     -0.15301430	      0.73793579	      0.52989804	     -0.16091383	      0.72164607	      0.04940949	     -0.15366537	      0.72629279	      0.06115179	     -0.22935952	      0.78307041	      0.21181278	     -0.17740913	      0.73587295	      0.20966294	     -0.18427224	      0.66136668	      0.42265762	     -0.18394354	      0.72402302	      0.06008354	     -0.20122249	      0.83432125	      0.03514801	     -0.20082950	      0.46595220	      0.41188982	     -0.38276155	      0.47273684	      0.39905294	     -0.23485787	      0.68986966	      0.53660399	     -0.34635738	      0.64798513	      0.56411926	     -0.34928758	      0.61256364	      0.49953254	     -0.34360153	      0.25390217	      0.10817343	     -0.34350094	      0.28354962	      0.11247950	     -0.26936914	      0.29496389	      0.21124391	     -0.41111512	      0.30864057	      0.21841445	     -0.36472675	      0.47553204	      0.41992710	     -0.31606024	      0.28174662	      0.10692888	     -0.30326707	      0.35274683	      0.03867787	     -0.32865766	      0.60496815	      1.27810355	     -0.20417603	      0.59917711	      1.28236676	     -0.28579035	      0.46109752	      1.31664737	     -0.23089397	      0.58604393	      1.27181688	     -0.25650685	      0.65282171	      1.21171986	     -0.26318245	      0.57210000	      0.76949400	     -0.24472700	      0.55665700	      0.77495300	     -0.16486100	      0.54997500	      0.77168800	     -0.32031200	      0.65005800	      0.41282000	     -0.19154400	      0.46266100	      0.42448300	     -0.31372800	      0.71961000	      0.05981300	     -0.19412500	      0.27246600	      0.10442000	     -0.30855300	      0.68228500	      0.84297200	     -0.24959300	      0.68768200	      0.84560900	     -0.12404300	      0.67688800	      0.84033500	     -0.37514300	      0.44023500	      0.91958500	     -0.20859300	      0.43516300	      0.91899400	     -0.26224500	      0.66044400	      0.41028900	     -0.12084700	      0.45837500	      0.42420700	     -0.38509900	      0.61747800	      0.40770800	     -0.25985600	      0.46560700	      0.41611900	     -0.22426200	      0.71472000	      0.05857100	     -0.15595700	      0.25895700	      0.11185900	     -0.34491900	      0.72045900	      0.07126900	     -0.23111200	      0.27531700	      0.12215500	     -0.26747400	      0.47277900	      1.33981000	     -0.23294800	      0.60096200	      1.26699400	     -0.20342300	      0.59422500	      1.26826700	     -0.28515700	      0.57978200	      1.26325000	     -0.25524200	      0.62808300	      1.18729300	     -0.25906000	      0.77305100	      0.57867300	     -0.12397000	      0.68401200	      0.55343700	     -0.33167900	      0.72867000	      0.59422000	     -0.13718000	      0.64107900	      0.58114600	     -0.33688500	      0.71763400	      0.51861200	     -0.14822200	      0.60746200	      0.51729700	     -0.33082600	      0.77757700	      0.22067500	     -0.17440900	      0.31163300	      0.20657400	     -0.41436500	      0.73114600	      0.21738400	     -0.18173800	      0.31688600	      0.21701500	     -0.36699600	      0.83223500	      0.04943300	     -0.18878100	      0.35429000	      0.04996900	     -0.31410100	    -53.10799174	    435.98151460	    -12.55278287	      0.71762445	      0.00000000	     -0.19357384	     66.06121893	    355.58335131	      3.99318216	      0.36969373	      0.00000000	     -0.29522415	      0.00000000	     -0.84757129	      0.00000000	      0.00000000	     -0.76167377	      0.00000000	      0.57209980	      0.76949382	     -0.24472693	      0.55665749	      0.77495325	     -0.16486102	      0.54997540	      0.77168822	     -0.32031235	      0.65005827	      0.41281965	     -0.19154392	      0.46266088	      0.42448318	     -0.31372792	      0.71960956	      0.05981306	     -0.19412482	      0.27246556	      0.10441952	     -0.30855349	      0.68228483	      0.84297156	     -0.24959332	      0.68768162	      0.84560853	     -0.12404343	      0.67688805	      0.84033459	     -0.37514320	      0.44023535	      0.91958457	     -0.20859276	      0.43516284	      0.91899395	     -0.26224506	      0.66044372	      0.41028917	     -0.12084745	      0.45837536	      0.42420742	     -0.38509881	      0.61747849	      0.40770832	     -0.25985557	      0.46560749	      0.41611931	     -0.22426222	      0.71472025	      0.05857069	     -0.15595676	      0.25895694	      0.11185902	     -0.34491861	      0.72045851	      0.07126938	     -0.23111202	      0.27531698	      0.12215491	     -0.26747429	      0.47277904	      1.33981013	     -0.23294781	      0.60096180	      1.26699352	     -0.20342323	      0.59422547	      1.26826715	     -0.28515682	      0.57978195	      1.26324999	     -0.25524157	      0.62808263	      1.18729270	     -0.25906029	      0.77305126	      0.57867265	     -0.12396985	      0.68401217	      0.55343658	     -0.33167884	      0.72867030	      0.59421968	     -0.13717982	      0.64107925	      0.58114606	     -0.33688456	      0.71763420	      0.51861215	     -0.14822210	      0.60746241	      0.51729727	     -0.33082649	      0.77757680	      0.22067480	     -0.17440933	      0.31163296	      0.20657426	     -0.41436529	      0.73114634	      0.21738367	     -0.18173814	      0.31688586	      0.21701474	     -0.36699596	      0.83223456	      0.04943277	     -0.18878148	      0.35429007	      0.04996866	     -0.31410116
